<?xml version="1.0" encoding="UTF-8" standalone="no"?>
<!-- Created with Inkscape (http://www.inkscape.org/) -->

<svg
   xmlns:dc="http://purl.org/dc/elements/1.1/"
   xmlns:cc="http://creativecommons.org/ns#"
   xmlns:rdf="http://www.w3.org/1999/02/22-rdf-syntax-ns#"
   xmlns:svg="http://www.w3.org/2000/svg"
   xmlns="http://www.w3.org/2000/svg"
   xmlns:xlink="http://www.w3.org/1999/xlink"
   version="1.1"
   width="22"
   height="12"
   viewBox="0 0 22 12"
   id="svg2">
  <metadata
     id="metadata17">
    <rdf:RDF>
      <cc:Work
         rdf:about="">
        <dc:format>image/svg+xml</dc:format>
        <dc:type
           rdf:resource="http://purl.org/dc/dcmitype/StillImage" />
        <dc:title></dc:title>
      </cc:Work>
    </rdf:RDF>
  </metadata>
  <defs
     id="defs6">
    <path
       d="M 0.50083613,0 C 0.22423197,0 0,0.21403503 0,0.50468445 L 0,1.4953155 C 0,1.7740451 0.21774173,2 0.50083613,2 L 21.499164,2 C 21.775768,2 22,1.785965 22,1.4953155 L 22,0.50468445 C 22,0.22595492 21.782258,0 21.499164,0 L 0.50083613,0 z m 0,5 C 0.22423197,5 0,5.214035 0,5.5046844 L 0,6.4953155 C 0,6.7740451 0.21774173,7 0.50083613,7 L 21.499164,7 C 21.775768,7 22,6.785965 22,6.4953155 L 22,5.5046844 C 22,5.2259549 21.782258,5 21.499164,5 L 0.50083613,5 z m 0,5 C 0.22423197,10 0,10.214035 0,10.504684 l 0,0.990632 C 0,11.774045 0.21774173,12 0.50083613,12 L 21.499164,12 C 21.775768,12 22,11.785965 22,11.495316 l 0,-0.990632 C 22,10.225955 21.782258,10 21.499164,10 L 0.50083613,10 z"
       id="path-1" />
  </defs>
  <g
     id="miu"
     style="fill:#cccccc;fill-rule:evenodd;stroke:none">
    <g
       id="editor_list_view_hambuger_menu_glyph"
       style="fill:#cccccc">
      <use
         id="use11"
         style="fill:#cccccc;fill-rule:evenodd"
         x="0"
         y="0"
         width="22"
         height="12"
         xlink:href="#path-1" />
      <use
         id="use13"
         style="fill:#cccccc"
         x="0"
         y="0"
         width="22"
         height="12"
         xlink:href="#path-1" />
    </g>
  </g>
  <path
     d="M 0.32282381,6.9302314 C 0.06654067,6.8277608 0.0326619,6.719236 0.03070781,5.9944882 0.02896238,5.3471309 0.0358935,5.3063637 0.17060368,5.1716535 l 0.14173228,-0.1417322 10.68766404,0 10.687664,0 0.141732,0.1417322 c 0.134711,0.1347102 0.141641,0.1754774 0.139896,0.8228347 -0.002,0.7353321 -0.03456,0.8340357 -0.309778,0.9386747 -0.209731,0.07974 -21.13711701,0.076865 -21.33669019,-0.00293 l 0,1e-7 z"
     id="path3164"
     style="fill:#000000;fill-opacity:1" />
</svg>
