<?xml version="1.0" encoding="UTF-8" standalone="no"?>
<!-- Created with Inkscape (http://www.inkscape.org/) -->

<svg
   xmlns:dc="http://purl.org/dc/elements/1.1/"
   xmlns:cc="http://creativecommons.org/ns#"
   xmlns:rdf="http://www.w3.org/1999/02/22-rdf-syntax-ns#"
   xmlns:svg="http://www.w3.org/2000/svg"
   xmlns="http://www.w3.org/2000/svg"
   xmlns:sodipodi="http://sodipodi.sourceforge.net/DTD/sodipodi-0.dtd"
   xmlns:inkscape="http://www.inkscape.org/namespaces/inkscape"
   width="122.13152mm"
   height="148.06857mm"
   viewBox="0 0 122.13151 148.06857"
   version="1.1"
   id="svg8"
   inkscape:version="0.92.1 r"
   sodipodi:docname="logo.svg"
   inkscape:export-filename="C:\Users\Julien\Desktop\coinc.png"
   inkscape:export-xdpi="96"
   inkscape:export-ydpi="96">
  <title
     id="title4530">MIDILab Icon</title>
  <defs
     id="defs2">
    <inkscape:path-effect
       effect="bspline"
       id="path-effect4638"
       is_visible="true"
       weight="33.333333"
       steps="2"
       helper_size="0"
       apply_no_weight="true"
       apply_with_weight="true"
       only_selected="false" />
    <inkscape:path-effect
       effect="bspline"
       id="path-effect4616"
       is_visible="true"
       weight="33.333333"
       steps="2"
       helper_size="0"
       apply_no_weight="true"
       apply_with_weight="true"
       only_selected="false" />
    <inkscape:path-effect
       effect="bspline"
       id="path-effect3720"
       is_visible="true"
       weight="33.333333"
       steps="2"
       helper_size="0"
       apply_no_weight="true"
       apply_with_weight="true"
       only_selected="false" />
    <inkscape:path-effect
       effect="bspline"
       id="path-effect3720-1"
       is_visible="true"
       weight="33.333333"
       steps="2"
       helper_size="0"
       apply_no_weight="true"
       apply_with_weight="true"
       only_selected="false" />
    <inkscape:path-effect
       effect="bspline"
       id="path-effect4616-2"
       is_visible="true"
       weight="33.333333"
       steps="2"
       helper_size="0"
       apply_no_weight="true"
       apply_with_weight="true"
       only_selected="false" />
    <inkscape:path-effect
       effect="bspline"
       id="path-effect4638-1"
       is_visible="true"
       weight="33.333333"
       steps="2"
       helper_size="0"
       apply_no_weight="true"
       apply_with_weight="true"
       only_selected="false" />
    <inkscape:path-effect
       effect="bspline"
       id="path-effect4638-1-3"
       is_visible="true"
       weight="33.333333"
       steps="2"
       helper_size="0"
       apply_no_weight="true"
       apply_with_weight="true"
       only_selected="false" />
    <inkscape:path-effect
       effect="bspline"
       id="path-effect4638-1-3-4"
       is_visible="true"
       weight="33.333333"
       steps="2"
       helper_size="0"
       apply_no_weight="true"
       apply_with_weight="true"
       only_selected="false" />
    <inkscape:path-effect
       effect="bspline"
       id="path-effect4638-1-1"
       is_visible="true"
       weight="33.333333"
       steps="2"
       helper_size="0"
       apply_no_weight="true"
       apply_with_weight="true"
       only_selected="false" />
    <inkscape:path-effect
       effect="bspline"
       id="path-effect4638-1-3-4-6"
       is_visible="true"
       weight="33.333333"
       steps="2"
       helper_size="0"
       apply_no_weight="true"
       apply_with_weight="true"
       only_selected="false" />
    <filter
       inkscape:label="Jam Spread"
       inkscape:menu="Textures"
       inkscape:menu-tooltip="Glossy clumpy jam spread"
       style="color-interpolation-filters:sRGB;"
       id="filter1443">
      <feGaussianBlur
         stdDeviation="1"
         in="SourceGraphic"
         result="result0"
         id="feGaussianBlur1427" />
      <feTurbulence
         result="result1"
         numOctaves="7"
         seed="488"
         baseFrequency="0.017"
         type="turbulence"
         id="feTurbulence1429" />
      <feComposite
         in="result0"
         in2="result1"
         operator="out"
         result="result2"
         id="feComposite1431" />
      <feGaussianBlur
         stdDeviation="0.5"
         result="result5"
         id="feGaussianBlur1433" />
      <feSpecularLighting
         in="result5"
         specularExponent="100"
         specularConstant="4"
         result="result4"
         surfaceScale="1.5"
         id="feSpecularLighting1437">
        <feDistantLight
           azimuth="225"
           elevation="62"
           id="feDistantLight1435" />
      </feSpecularLighting>
      <feComposite
         operator="atop"
         in="result4"
         in2="result2"
         result="result91"
         id="feComposite1439" />
      <feBlend
         mode="multiply"
         in2="result91"
         id="feBlend1441" />
    </filter>
    <filter
       inkscape:label="Jam Spread"
       inkscape:menu="Textures"
       inkscape:menu-tooltip="Glossy clumpy jam spread"
       style="color-interpolation-filters:sRGB;"
       id="filter1461">
      <feGaussianBlur
         stdDeviation="1"
         in="SourceGraphic"
         result="result0"
         id="feGaussianBlur1445" />
      <feTurbulence
         result="result1"
         numOctaves="7"
         seed="488"
         baseFrequency="0.017"
         type="turbulence"
         id="feTurbulence1447" />
      <feComposite
         in="result0"
         in2="result1"
         operator="out"
         result="result2"
         id="feComposite1449" />
      <feGaussianBlur
         stdDeviation="0.5"
         result="result5"
         id="feGaussianBlur1451" />
      <feSpecularLighting
         in="result5"
         specularExponent="100"
         specularConstant="4"
         result="result4"
         surfaceScale="1.5"
         id="feSpecularLighting1455">
        <feDistantLight
           azimuth="225"
           elevation="62"
           id="feDistantLight1453" />
      </feSpecularLighting>
      <feComposite
         operator="atop"
         in="result4"
         in2="result2"
         result="result91"
         id="feComposite1457" />
      <feBlend
         mode="multiply"
         in2="result91"
         id="feBlend1459" />
    </filter>
    <filter
       inkscape:label="Film Grain"
       inkscape:menu="Image Effects"
       inkscape:menu-tooltip="Adds a small scale graininess"
       style="color-interpolation-filters:sRGB;"
       id="filter1917">
      <feTurbulence
         type="fractalNoise"
         numOctaves="3"
         baseFrequency="1"
         seed="0"
         result="result0"
         id="feTurbulence1907" />
      <feColorMatrix
         result="result4"
         values="0"
         type="saturate"
         id="feColorMatrix1909" />
      <feComposite
         in="SourceGraphic"
         in2="result4"
         operator="arithmetic"
         k1="1.25"
         k2="0.5"
         k3="0.5"
         result="result2"
         id="feComposite1911" />
      <feBlend
         result="result5"
         mode="normal"
         in="result2"
         in2="SourceGraphic"
         id="feBlend1913" />
      <feComposite
         in="result5"
         in2="SourceGraphic"
         operator="in"
         result="result3"
         id="feComposite1915" />
    </filter>
    <filter
       inkscape:label="Film Grain"
       inkscape:menu="Image Effects"
       inkscape:menu-tooltip="Adds a small scale graininess"
       style="color-interpolation-filters:sRGB;"
       id="filter1945">
      <feTurbulence
         type="fractalNoise"
         numOctaves="3"
         baseFrequency="1"
         seed="0"
         result="result0"
         id="feTurbulence1935" />
      <feColorMatrix
         result="result4"
         values="0"
         type="saturate"
         id="feColorMatrix1937" />
      <feComposite
         in="SourceGraphic"
         in2="result4"
         operator="arithmetic"
         k1="1.25"
         k2="0.5"
         k3="0.5"
         result="result2"
         id="feComposite1939" />
      <feBlend
         result="result5"
         mode="normal"
         in="result2"
         in2="SourceGraphic"
         id="feBlend1941" />
      <feComposite
         in="result5"
         in2="SourceGraphic"
         operator="in"
         result="result3"
         id="feComposite1943" />
    </filter>
    <filter
       inkscape:label="Film Grain"
       inkscape:menu="Image Effects"
       inkscape:menu-tooltip="Adds a small scale graininess"
       style="color-interpolation-filters:sRGB;"
       id="filter1957">
      <feTurbulence
         type="fractalNoise"
         numOctaves="3"
         baseFrequency="1"
         seed="0"
         result="result0"
         id="feTurbulence1947" />
      <feColorMatrix
         result="result4"
         values="0"
         type="saturate"
         id="feColorMatrix1949" />
      <feComposite
         in="SourceGraphic"
         in2="result4"
         operator="arithmetic"
         k1="1.25"
         k2="0.5"
         k3="0.5"
         result="result2"
         id="feComposite1951" />
      <feBlend
         result="result5"
         mode="normal"
         in="result2"
         in2="SourceGraphic"
         id="feBlend1953" />
      <feComposite
         in="result5"
         in2="SourceGraphic"
         operator="in"
         result="result3"
         id="feComposite1955" />
    </filter>
  </defs>
  <sodipodi:namedview
     id="base"
     pagecolor="#ffffff"
     bordercolor="#666666"
     borderopacity="1.0"
     inkscape:pageopacity="0.0"
     inkscape:pageshadow="2"
     inkscape:zoom="0.98994949"
     inkscape:cx="284.97639"
     inkscape:cy="222.94853"
     inkscape:document-units="mm"
     inkscape:current-layer="layer1"
     showgrid="false"
     inkscape:snap-bbox="false"
     inkscape:window-width="1920"
     inkscape:window-height="1018"
     inkscape:window-x="-8"
     inkscape:window-y="314"
     inkscape:window-maximized="1"
     inkscape:pagecheckerboard="false"
     fit-margin-top="5"
     fit-margin-left="5"
     fit-margin-right="5"
     fit-margin-bottom="5"
     inkscape:snap-global="true"
     showguides="false" />
  <metadata
     id="metadata5">
    <rdf:RDF>
      <cc:Work
         rdf:about="">
        <dc:format>image/svg+xml</dc:format>
        <dc:type
           rdf:resource="http://purl.org/dc/dcmitype/StillImage" />
        <dc:title>MIDILab Icon</dc:title>
        <dc:date>11/10/2017</dc:date>
        <dc:creator>
          <cc:Agent>
            <dc:title>Julien Berthault</dc:title>
          </cc:Agent>
        </dc:creator>
      </cc:Work>
    </rdf:RDF>
  </metadata>
  <g
     inkscape:label="Calque 1"
     inkscape:groupmode="layer"
     id="layer1"
     transform="translate(-36.766367,-59.129798)">
    <path
       id="path3708"
       style="fill:none;fill-rule:evenodd;stroke:#000000;stroke-width:6;stroke-linecap:round;stroke-linejoin:round;stroke-miterlimit:4;stroke-dasharray:none;stroke-opacity:1"
       d="m 55.949693,101.85779 v 66.14583" />
    <path
       style="fill:none;fill-rule:evenodd;stroke:#000000;stroke-width:6;stroke-linecap:butt;stroke-linejoin:miter;stroke-miterlimit:4;stroke-dasharray:none;stroke-opacity:1"
       d="m 55.949693,168.00362 c 0,10.39408 0,20.78843 7.213362,25.98574 7.213361,5.1973 21.639084,5.1973 36.064911,5.1973"
       id="path3718"
       inkscape:connector-curvature="0"
       inkscape:path-effect="#path-effect3720"
       inkscape:original-d="m 55.949693,168.00362 c 2.64e-4,10.39408 2.64e-4,20.78843 0,31.18304 14.426723,-2.7e-4 28.852446,-2.7e-4 43.278273,0" />
    <path
       style="fill:none;fill-rule:evenodd;stroke:#000000;stroke-width:6;stroke-linecap:round;stroke-linejoin:miter;stroke-miterlimit:4;stroke-dasharray:none;stroke-opacity:1"
       d="m 142.50625,101.85779 v 66.14583"
       id="path3708-6"
       inkscape:connector-curvature="0" />
    <path
       style="fill:none;fill-rule:evenodd;stroke:#000000;stroke-width:6;stroke-linecap:round;stroke-linejoin:miter;stroke-miterlimit:4;stroke-dasharray:none;stroke-opacity:1"
       d="m 142.50625,168.00362 c 0,10.39408 0,20.78843 -7.21337,25.98574 -7.21336,5.1973 -21.63908,5.1973 -36.064914,5.1973"
       id="path3718-5"
       inkscape:connector-curvature="0"
       inkscape:path-effect="#path-effect3720-1"
       inkscape:original-d="m 142.50625,168.00362 c -2.7e-4,10.39408 -2.7e-4,20.78843 0,31.18304 -14.42673,-2.6e-4 -28.85245,-2.6e-4 -43.278284,0" />
    <ellipse
       style="opacity:0.02999998;fill:#000000;fill-opacity:1;stroke-width:6;stroke-linejoin:miter;stroke-miterlimit:4;stroke-dasharray:none"
       id="path4604"
       cx="50.086452"
       cy="98.88723"
       rx="5.8632393"
       ry="2.9705617" />
    <ellipse
       style="opacity:0.02999998;fill:#000000;fill-opacity:1;stroke-width:6;stroke-linejoin:miter;stroke-miterlimit:4;stroke-dasharray:none"
       id="path4606"
       cx="42.52232"
       cy="93.176338"
       rx="0.75595242"
       ry="0.47247022" />
    <path
       style="opacity:0.02999998;fill:#000000;fill-opacity:1;stroke-width:6;stroke-linejoin:miter;stroke-miterlimit:4;stroke-dasharray:none"
       id="path4610"
       sodipodi:type="arc"
       sodipodi:cx="71.626488"
       sodipodi:cy="90.71949"
       sodipodi:rx="6.614583"
       sodipodi:ry="2.3623512"
       sodipodi:start="0"
       sodipodi:end="2.0082611"
       d="m 78.241071,90.71949 a 6.614583,2.3623512 0 0 1 -3.06373,1.993105 6.614583,2.3623512 0 0 1 -6.353084,0.14678 l 2.802231,-2.139885 z" />
    <path
       style="opacity:0.02999998;fill:#000000;fill-opacity:1;stroke-width:6;stroke-linejoin:miter;stroke-miterlimit:4;stroke-dasharray:none"
       id="path4612"
       sodipodi:type="arc"
       sodipodi:cx="71.059525"
       sodipodi:cy="83.726929"
       sodipodi:rx="0.75595242"
       sodipodi:ry="0.47247022"
       sodipodi:start="0"
       sodipodi:end="2.0082631"
       d="m 71.815477,83.726929 a 0.75595242,0.47247022 0 0 1 -0.350141,0.398621 0.75595242,0.47247022 0 0 1 -0.726068,0.02935 l 0.320257,-0.427976 z" />
    <path
       style="fill:none;fill-rule:evenodd;stroke:#000000;stroke-width:6;stroke-linecap:round;stroke-linejoin:round;stroke-miterlimit:4;stroke-dasharray:none;stroke-opacity:1;paint-order:normal"
       d="m 55.949693,101.85779 c -2.787111,-2.787112 -5.574221,-5.574223 -8.36133,-8.361333"
       id="path4614"
       inkscape:connector-curvature="0"
       inkscape:path-effect="#path-effect4616"
       inkscape:original-d="m 55.949693,101.85779 c -2.786845,-2.787377 -5.573956,-5.574487 -8.36133,-8.361333" />
    <path
       style="fill:none;fill-rule:evenodd;stroke:#000000;stroke-width:6;stroke-linecap:round;stroke-linejoin:round;stroke-miterlimit:4;stroke-dasharray:none;stroke-opacity:1;paint-order:normal"
       d="m 142.50625,101.85779 c 2.78711,-2.787109 5.57422,-5.574225 8.36133,-8.361333"
       id="path4614-4"
       inkscape:connector-curvature="0"
       inkscape:path-effect="#path-effect4616-2"
       inkscape:original-d="m 142.50625,101.85779 c 2.78684,-2.787377 5.57396,-5.574487 8.36133,-8.361333" />
    <path
       style="fill:none;fill-rule:evenodd;stroke:#000000;stroke-width:6;stroke-linecap:round;stroke-linejoin:miter;stroke-miterlimit:4;stroke-dasharray:none;stroke-opacity:1"
       d="m 75.708631,113.68156 c -2.960548,0 -5.921362,0 -8.882439,0"
       id="path4636"
       inkscape:connector-curvature="0"
       inkscape:path-effect="#path-effect4638"
       inkscape:original-d="m 75.708631,113.68156 c -2.960548,-2.7e-4 -5.921362,-2.7e-4 -8.882439,0" />
    <path
       style="fill:none;fill-rule:evenodd;stroke:#000000;stroke-width:6;stroke-linecap:round;stroke-linejoin:miter;stroke-miterlimit:4;stroke-dasharray:none;stroke-opacity:1"
       d="m 75.803126,126.00365 c -2.960549,0 -5.921363,0 -8.88244,0"
       id="path4636-2"
       inkscape:connector-curvature="0"
       inkscape:path-effect="#path-effect4638-1"
       inkscape:original-d="m 75.803126,126.00365 c -2.960549,-2.6e-4 -5.921363,-2.6e-4 -8.88244,0" />
    <path
       style="fill:none;fill-rule:evenodd;stroke:#000000;stroke-width:6;stroke-linecap:round;stroke-linejoin:miter;stroke-miterlimit:4;stroke-dasharray:none;stroke-opacity:1"
       d="m 75.897622,138.32574 c -2.960551,0 -5.921365,0 -8.882442,0"
       id="path4636-2-0"
       inkscape:connector-curvature="0"
       inkscape:path-effect="#path-effect4638-1-3"
       inkscape:original-d="m 75.897622,138.32574 c -2.960551,-2.6e-4 -5.921365,-2.6e-4 -8.882442,0" />
    <path
       style="fill:none;fill-rule:evenodd;stroke:#000000;stroke-width:6;stroke-linecap:round;stroke-linejoin:miter;stroke-miterlimit:4;stroke-dasharray:none;stroke-opacity:1"
       d="m 75.992117,150.64783 c -2.96055,0 -5.92137,0 -8.882443,0"
       id="path4636-2-7"
       inkscape:connector-curvature="0"
       inkscape:path-effect="#path-effect4638-1-1"
       inkscape:original-d="m 75.992117,150.64783 c -2.96055,-2.6e-4 -5.92137,-2.6e-4 -8.882443,0" />
    <path
       style="fill:none;fill-rule:evenodd;stroke:#000000;stroke-width:6;stroke-linecap:round;stroke-linejoin:miter;stroke-miterlimit:4;stroke-dasharray:none;stroke-opacity:1"
       d="m 76.086607,162.96992 c -2.96055,0 -5.92136,0 -8.882439,0"
       id="path4636-2-0-2"
       inkscape:connector-curvature="0"
       inkscape:path-effect="#path-effect4638-1-3-4"
       inkscape:original-d="m 76.086607,162.96992 c -2.96055,-2.6e-4 -5.92136,-2.6e-4 -8.882439,0" />
    <path
       style="fill:none;fill-rule:evenodd;stroke:#000000;stroke-width:6;stroke-linecap:round;stroke-linejoin:miter;stroke-miterlimit:4;stroke-dasharray:none;stroke-opacity:1"
       d="m 76.181101,175.29201 c -2.96055,0 -5.92136,0 -8.882439,0"
       id="path4636-2-0-2-7"
       inkscape:connector-curvature="0"
       inkscape:path-effect="#path-effect4638-1-3-4-6"
       inkscape:original-d="m 76.181101,175.29201 c -2.96055,-2.6e-4 -5.92136,-2.6e-4 -8.882439,0" />
    <text
       xml:space="preserve"
       style="font-style:normal;font-variant:normal;font-weight:normal;font-stretch:normal;font-size:44.11885834px;line-height:125%;font-family:Sans;-inkscape-font-specification:'Sans, Normal';font-variant-ligatures:normal;font-variant-caps:normal;font-variant-numeric:normal;font-feature-settings:normal;text-align:start;letter-spacing:0px;word-spacing:0px;writing-mode:lr-tb;text-anchor:start;fill:#000000;fill-opacity:1;stroke:none;stroke-width:1.10297143px;stroke-linecap:butt;stroke-linejoin:miter;stroke-opacity:1"
       x="107.16888"
       y="96.292618"
       id="text5084"><tspan
         sodipodi:role="line"
         id="tspan5086"
         x="107.16888"
         y="96.292618"
         style="stroke-width:1.10297143px">♪</tspan></text>
    <text
       xml:space="preserve"
       style="font-style:normal;font-variant:normal;font-weight:bold;font-stretch:normal;font-size:39.20716476px;line-height:125%;font-family:Aharoni;-inkscape-font-specification:'Aharoni, Bold';font-variant-ligatures:normal;font-variant-caps:normal;font-variant-numeric:normal;font-feature-settings:normal;text-align:start;letter-spacing:0px;word-spacing:0px;writing-mode:lr-tb;text-anchor:start;fill:#000000;fill-opacity:1;stroke:none;stroke-width:0.98017907px;stroke-linecap:butt;stroke-linejoin:miter;stroke-opacity:1"
       x="-190.80579"
       y="116.47176"
       id="text5090"
       transform="rotate(-90)"><tspan
         sodipodi:role="line"
         id="tspan5088"
         x="-190.80579"
         y="116.47176"
         style="font-style:normal;font-variant:normal;font-weight:bold;font-stretch:normal;font-size:39.20716476px;font-family:Aharoni;-inkscape-font-specification:'Aharoni, Bold';font-variant-ligatures:normal;font-variant-caps:normal;font-variant-numeric:normal;font-feature-settings:normal;text-align:start;writing-mode:lr-tb;text-anchor:start;stroke-width:0.98017907px">MIDI</tspan></text>
    <ellipse
       style="opacity:1;fill:#000000;fill-opacity:1;stroke:#000000;stroke-width:0.74647319;stroke-linecap:round;stroke-linejoin:round;stroke-miterlimit:4;stroke-dasharray:none;stroke-opacity:1;paint-order:normal"
       id="path5092-4"
       cx="-75.666092"
       cy="-97.171021"
       rx="4.3038468"
       ry="4.693604"
       transform="matrix(0,-1,-1,0,0,0)" />
    <ellipse
       style="opacity:1;fill:#000000;fill-opacity:1;stroke:#000000;stroke-width:0.74647319;stroke-linecap:round;stroke-linejoin:round;stroke-miterlimit:4;stroke-dasharray:none;stroke-opacity:1;paint-order:normal"
       id="path5092-4-1"
       cx="-88.357147"
       cy="-75.217262"
       rx="4.3038468"
       ry="4.693604"
       transform="matrix(0,-1,-1,0,0,0)" />
    <ellipse
       style="opacity:1;fill:#bbbbbb;fill-opacity:1;stroke:none;stroke-width:0.28021684;stroke-linecap:round;stroke-linejoin:round;stroke-miterlimit:4;stroke-dasharray:none;stroke-opacity:1;paint-order:normal;filter:url(#filter1957)"
       id="path5092-4-1-2-6"
       cx="-93.006538"
       cy="-114.8046"
       rx="1.615611"
       ry="1.7619209"
       transform="matrix(0,-1,-1,0,0,0)" />
    <ellipse
       style="opacity:1;fill:#bbbbbb;fill-opacity:1;stroke:none;stroke-width:0.28021684;stroke-linecap:round;stroke-linejoin:round;stroke-miterlimit:4;stroke-dasharray:none;stroke-opacity:1;paint-order:normal;filter:url(#filter1945)"
       id="path5092-4-1-2-6-1"
       cx="-75.5672"
       cy="-97.820648"
       rx="1.615611"
       ry="1.7619209"
       transform="matrix(0,-1,-1,0,0,0)" />
    <ellipse
       style="opacity:1;fill:#bbbbbb;fill-opacity:1;stroke:none;stroke-width:0.28021684;stroke-linecap:round;stroke-linejoin:round;stroke-miterlimit:4;stroke-dasharray:none;stroke-opacity:1;paint-order:normal;filter:url(#filter1917)"
       id="path5092-4-1-2-6-4"
       cx="-89.465218"
       cy="-75.770912"
       rx="1.615611"
       ry="1.7619209"
       transform="matrix(0,-1,-1,0,0,0)" />
    <path
       style="opacity:1;fill:#5aa5ff;fill-opacity:1;stroke:none;stroke-width:2.69966269;stroke-linecap:round;stroke-linejoin:round;stroke-miterlimit:4;stroke-dasharray:none;stroke-opacity:1;paint-order:normal;filter:url(#filter1443)"
       d="m 321.41533,740.44421 c -35.55993,-1.72249 -59.66922,-6.58829 -72.53444,-14.63911 -13.81737,-8.64666 -20.31489,-20.92635 -23.99747,-45.35286 -1.12172,-7.44036 -1.26206,-17.94405 -1.48955,-111.48354 l -0.25116,-103.26924 7.70774,-2.25174 c 13.1396,-3.83861 17.76544,-4.6179 27.3506,-4.60758 7.95245,0.009 10.01676,0.29387 18.88224,2.60977 5.47453,1.43008 10.10845,2.75493 10.29762,2.9441 0.18917,0.18917 -8.15214,0.34394 -18.53624,0.34394 -17.00355,0 -19.12758,0.13146 -21.36905,1.32258 -3.11231,1.65388 -5.4381,4.9947 -6.06647,8.71403 -0.62399,3.69338 1.84727,8.93094 5.29039,11.21236 2.37446,1.57333 2.86668,1.60818 22.71404,1.60818 22.19484,0 22.63181,-0.0715 26.17396,-4.28109 3.54946,-4.2183 3.36433,-10.42911 -0.44004,-14.76205 -1.80317,-2.05369 -1.97918,-2.49457 -0.85762,-2.14819 14.37652,4.43996 31.23747,5.86835 44.19122,3.74368 3.88617,-0.6374 7.16961,-1.05507 7.29654,-0.92815 0.12692,0.12693 -0.54177,2.14376 -1.48599,4.48186 -2.7148,6.72246 -3.2223,12.13537 -3.22807,34.42965 l -0.005,20.89286 h 49.64286 49.64286 v -22.18043 c 0,-25.07373 -0.39803,-28.11853 -4.87582,-37.29861 -1.48113,-3.03653 -2.60765,-5.52096 -2.50336,-5.52096 0.10429,0 5.1019,0.79607 11.10583,1.76904 16.2685,2.63641 26.58245,3.23096 56.04948,3.23096 h 26.71154 l -0.25162,102.32143 c -0.2717,110.48165 -0.18077,107.73826 -4.07601,122.96852 -7.70832,30.13922 -26.73105,40.8065 -81.08862,45.47163 -11.38522,0.97712 -103.04116,1.48043 -120,0.65896 z m 118.92858,-38.06156 v -13.0696 l -25.89286,-3.77327 c -14.24107,-2.07529 -26.66155,-3.95452 -27.60107,-4.17606 -1.2645,-0.29817 5.46113,-3.27068 25.89286,-11.4438 l 27.60107,-11.041 v -5.46793 -5.46794 l -27.14286,-11.38183 c -14.92857,-6.26001 -27.14286,-11.56382 -27.14286,-11.78624 0,-0.22242 8.4375,-1.46925 18.75,-2.77073 10.3125,-1.30148 22.52679,-2.87075 27.14286,-3.48725 l 8.39286,-1.12093 V 604.2018 591.00754 l -2.32143,0.40936 c -1.27679,0.22516 -22.89286,3.48468 -48.03572,7.2434 -25.14285,3.75871 -46.44472,6.9932 -47.33747,7.18776 l -1.62319,0.35374 0.19462,13.0102 0.19461,13.0102 25.9247,10.4312 25.92469,10.43121 -26.10326,9.8897 -26.10327,9.8897 v 12.91627 12.91627 l 48.39286,8.30115 c 26.61607,4.56563 48.95536,8.33566 49.64286,8.37785 1.14772,0.0704 1.25,-0.99265 1.25,-12.9929 z M 294.356,672.19382 c 3.74753,-2.80002 4.91648,-5.08222 4.91648,-9.59872 0,-4.68554 -1.29395,-7.06098 -5.34988,-9.82143 -2.31342,-1.5745 -2.77787,-1.60715 -22.86441,-1.60715 -20.07144,0 -20.55411,0.0339 -22.93008,1.60818 -3.44312,2.28142 -5.91438,7.51897 -5.29039,11.21236 0.62807,3.71751 2.95042,7.05474 6.07761,8.73357 2.30703,1.23853 4.08122,1.32684 22.98481,1.14401 19.40956,-0.18772 20.58827,-0.27542 22.45586,-1.67082 z m -0.67011,-46.45012 c 7.29665,-5.4105 7.05034,-15.46776 -0.48727,-19.8957 -2.35879,-1.38566 -3.6089,-1.46719 -22.49757,-1.46719 -17.63476,0 -20.26788,0.14655 -22.26512,1.23922 -6.23727,3.41235 -7.8767,12.29727 -3.27759,17.763 3.43022,4.07659 4.2764,4.20558 26.38469,4.02203 19.16506,-0.15911 20.22408,-0.23857 22.14286,-1.66136 z m -1.17191,-46.18432 c 3.557,-1.79368 6.40135,-6.31641 6.40135,-10.17857 0,-3.86216 -2.84435,-8.38489 -6.40135,-10.17857 -3.06568,-1.54593 -3.90724,-1.60714 -22.09591,-1.60714 -17.66492,0 -19.10987,0.0973 -21.96457,1.47925 -8.52273,4.12578 -8.46056,16.39837 0.10469,20.66711 2.63816,1.3148 4.31002,1.42398 21.81294,1.4245 18.23793,5.4e-4 19.07648,-0.0603 22.14285,-1.60658 z m 147.82993,-17.32143 v -13.21428 h -49.64286 -49.64286 v 13.21428 13.21429 h 49.64286 49.64286 z M 292.48433,532.91362 c 1.37367,-0.80695 3.25005,-2.57481 4.16972,-3.92857 1.4151,-2.08302 1.62993,-3.14686 1.39747,-6.92059 -0.24198,-3.92839 -0.56587,-4.75964 -2.72087,-6.98304 -1.34541,-1.38811 -3.58032,-2.85757 -4.96647,-3.26546 -1.55977,-0.45899 -9.919,-0.656 -21.9338,-0.51696 -18.30394,0.21183 -19.52618,0.30884 -21.38444,1.69737 -5.89974,4.40842 -7.0431,12.06561 -2.58983,17.34435 3.43709,4.07419 5.48212,4.39777 26.60208,4.20914 17.63742,-0.15752 19.09894,-0.26913 21.42614,-1.63624 z"
       id="path5191"
       inkscape:connector-curvature="0"
       transform="scale(0.26458333)" />
    <path
       style="opacity:1;fill:#5aa5ff;fill-opacity:1;stroke:none;stroke-width:2.69966269;stroke-linecap:round;stroke-linejoin:round;stroke-miterlimit:4;stroke-dasharray:none;stroke-opacity:1;paint-order:normal;filter:url(#filter1461)"
       d="m 363.35498,496.09618 c 0.72977,-12.07258 5.29852,-19.65353 14.60582,-24.23549 4.02002,-1.97905 5.64538,-2.35548 11.20344,-2.59467 7.68536,-0.33073 13.69948,1.33116 19.0616,5.26732 6.6039,4.84771 9.29993,10.59357 9.78243,20.84855 l 0.34447,7.32143 h -27.69857 -27.69858 z"
       id="path5193"
       inkscape:connector-curvature="0"
       transform="scale(0.26458333)" />
  </g>
</svg>
