<?xml version="1.0" encoding="iso-8859-1"?>
<!-- Generator: Adobe Illustrator 19.0.0, SVG Export Plug-In . SVG Version: 6.00 Build 0)  -->
<svg version="1.1" id="Layer_1" xmlns="http://www.w3.org/2000/svg" xmlns:xlink="http://www.w3.org/1999/xlink" x="0px" y="0px"
	 viewBox="0 0 512 512" style="enable-background:new 0 0 512 512;" xml:space="preserve">
<g>
	<g>
		<g>
			<path d="M397.509,414.438c-0.792-5.219-5.271-9.083-10.552-9.083l-283.25-0.021c-5.281,0-9.76,3.865-10.552,9.083l-7.01,46.792
				c-0.521,2.646-0.813,5.344-0.813,8.125c0,23.531,19.135,42.667,42.667,42.667h234.667c23.531,0,42.667-19.135,42.667-42.667
				c0-2.781-0.292-5.479-0.729-7.667L397.509,414.438z M245.332,480c-11.76,0-21.333-9.573-21.333-21.333
				s9.573-21.333,21.333-21.333s21.333,9.573,21.333,21.333S257.093,480,245.332,480z"/>
			<path d="M421.509,33.531c-5.073-3.073-11.615-1.438-14.646,3.625l-29.686,49.227c-14.318,0.076-31.208,12.292-41.949,32.326
				c-5.917,11.042-9.219,22.823-9.292,33.177c-0.059,7.909,2.025,14.535,5.547,19.66l-92.826,191.121h-3.992v-40.625l71.323-146.833
				c1.115-2.281,1.375-4.896,0.729-7.365c-1.469-5.573-2.156-10.833-2.115-16.104c0.115-13.771,4.313-29.083,11.823-43.104
				C322.937,96.51,331.614,86,341.551,78.24c3.031-2.375,4.552-6.188,3.979-9.99l-4.792-31.865C337.603,15.302,319.905,0,298.666,0
				H191.999c-21.24,0-38.938,15.302-42.073,36.375L99.562,371.75c-0.458,3.073,0.437,6.188,2.469,8.542
				c2.021,2.354,4.979,3.708,8.083,3.708l270.438,0.021c3.104,0,6.052-1.354,8.083-3.708c2.021-2.354,2.927-5.469,2.469-8.542
				l-28.97-192.975c10.939-4.746,21.745-15.359,29.522-29.879c5.917-11.042,9.208-22.823,9.292-33.177
				c0.056-7.573-1.855-13.962-5.092-19.008l29.28-48.555C428.176,43.135,426.551,36.573,421.509,33.531z M234.666,21.333h21.333V64
				h-21.333V21.333z M234.666,85.333h21.333V128h-21.333V85.333z M234.666,149.333h21.333V192h-21.333V149.333z M234.666,213.333
				h21.333v15.969l-21.333,43.922V213.333z"/>
		</g>
	</g>
</g>
<g>
</g>
<g>
</g>
<g>
</g>
<g>
</g>
<g>
</g>
<g>
</g>
<g>
</g>
<g>
</g>
<g>
</g>
<g>
</g>
<g>
</g>
<g>
</g>
<g>
</g>
<g>
</g>
<g>
</g>
</svg>
