<?xml version="1.0" encoding="iso-8859-1"?>
<!-- Generator: Adobe Illustrator 19.0.0, SVG Export Plug-In . SVG Version: 6.00 Build 0)  -->
<svg version="1.1" id="Layer_1" xmlns="http://www.w3.org/2000/svg" xmlns:xlink="http://www.w3.org/1999/xlink" x="0px" y="0px"
	 viewBox="0 0 469.333 469.333" style="enable-background:new 0 0 469.333 469.333;" xml:space="preserve">
<g>
	<g>
		<g>
			<path d="M266.661,195.698c-21.065,0-40.795,7.345-57.012,20.206l-10.112-10.112c-4.167-4.167-10.916-4.167-15.083,0
				s-4.167,10.917,0,15.083l9.375,9.375l-16.916,16.917l-9.375-9.375c-4.167-4.167-10.916-4.167-15.083,0s-4.167,10.917,0,15.083
				l9.375,9.375l-16.916,16.917l-9.375-9.375c-4.167-4.167-10.916-4.167-15.083,0s-4.167,10.917,0,15.083l9.375,9.375
				l-98.039,98.042L5.553,406.646c-2.948,1.604-4.969,4.51-5.448,7.844c-0.469,3.323,0.646,6.677,3.021,9.052l42.666,42.667
				c2.01,2.01,4.729,3.125,7.541,3.125c0.5,0,1.01-0.031,1.51-0.104c3.333-0.479,6.239-2.5,7.844-5.448l14.354-26.24L175.08,339.5
				l38.401,38.402c-9.429,3.682-20.783,2.391-28.766-4.215c-4.24-3.49-10.427-3.208-14.333,0.677l-30.166,30.167
				c-2.062,2.063-3.187,4.875-3.125,7.781c0.073,2.917,1.323,5.667,3.469,7.635c17.197,15.708,39.249,24.354,62.103,24.354
				c24.697,0,47.884-9.594,65.29-27.01l63.998-64c35.999-36,35.999-94.583,0-130.583
				C314.545,205.292,291.358,195.698,266.661,195.698z M230.245,364.5l-40.082-40.083l11.635-11.635l5.281-5.281l40.082,40.083
				L230.245,364.5z M262.245,332.5l-40.082-40.083l8.458-8.458l8.458-8.458l40.082,40.083L262.245,332.5z M292.718,298.974
				l-36.948-36.949c10.295-4.077,22.882-2.117,30.933,5.934C295.081,276.337,297.042,288.669,292.718,298.974z"/>
			<path d="M464.281,106.969c-7.26-20.219-21.791-41.885-40.916-61.01C395.023,17.615,361.711,0,336.441,0
				c-14.25,0-22.822,5.583-27.51,10.271c-7.422,7.415-10.393,18.102-9.745,30.658c-0.108,0.608-0.526,1.105-0.526,1.738
				c0,47.615-10.791,82-36.082,114.969c-2.437,3.167-2.896,7.427-1.187,11.042c1.698,3.615,5.281,5.969,9.271,6.104
				c19.364,0.677,37.593,6.073,54.186,16.042c1.687,1.01,3.583,1.521,5.489,1.521c1.75,0,3.49-0.427,5.083-1.292
				c25.676-13.906,54.665-20.385,91.237-20.385c0.359,0,0.613-0.285,0.962-0.324c1.299,0.087,2.663,0.324,3.923,0.324
				c14.25,0,22.822-5.583,27.51-10.271C470.646,148.812,472.5,129.833,464.281,106.969z M374.783,94.542
				c-14.552-14.552-25.833-31.052-30.937-45.26c-0.792-2.229-1.354-4.167-1.74-5.823c11.198,2.677,30.801,12.375,51.093,32.667
				c14.552,14.552,25.833,31.052,30.937,45.26c0.792,2.229,1.354,4.167,1.74,5.823C414.678,124.531,395.075,114.833,374.783,94.542z
				"/>
		</g>
	</g>
</g>
<g>
</g>
<g>
</g>
<g>
</g>
<g>
</g>
<g>
</g>
<g>
</g>
<g>
</g>
<g>
</g>
<g>
</g>
<g>
</g>
<g>
</g>
<g>
</g>
<g>
</g>
<g>
</g>
<g>
</g>
</svg>
